<?xml version="1.0" standalone="no"?><!DOCTYPE svg PUBLIC "-//W3C//DTD SVG 1.1//EN" "http://www.w3.org/Graphics/SVG/1.1/DTD/svg11.dtd"><svg t="1752252253342" class="icon" viewBox="0 0 1024 1024" version="1.1" xmlns="http://www.w3.org/2000/svg" p-id="8938" xmlns:xlink="http://www.w3.org/1999/xlink" width="200" height="200"><path d="M581.4 427v-82c-0.1-1.5-2.8-4.2-4.3-4.3H446.9c-1.5 0.1-4.2 2.8-4.3 4.3v82c0.1 1.5 2.8 4.2 4.3 4.3h130.3c1.3-0.1 4.1-2.8 4.2-4.3zM704.5 592.7H572.3c-1.6 0.1-4.5 3-4.6 4.6v83.3c0.1 1.6 3 4.5 4.6 4.6h132.2c1.6-0.1 4.5-3 4.6-4.6v-83.3c-0.1-1.6-3-4.5-4.6-4.6zM314.9 597.3v83.3c0.1 1.6 3 4.5 4.6 4.6h132.2c1.6-0.1 4.5-3 4.6-4.6v-83.3c-0.1-1.6-3-4.5-4.6-4.6H319.5c-1.6 0.1-4.5 3-4.6 4.6z" fill="#38BCFD" p-id="8939"></path><path d="M512 128.5c-211.8 0-383.5 171.7-383.5 383.5S300.2 895.5 512 895.5 895.5 723.8 895.5 512 723.8 128.5 512 128.5z m227.1 552.1c0 18.1-16.5 34.6-34.6 34.6H572.3c-18.1 0-34.6-16.5-34.6-34.6v-83.3c0-18.1 16.5-34.6 34.6-34.6h52.5v-38.6c0-1.6-1.3-2.8-2.8-2.8H402.9c-1.6 0-2.8 1.3-2.8 2.8v38.6h51.6c18.1 0 34.6 16.5 34.6 34.6v83.3c0 18.1-16.5 34.6-34.6 34.6H319.5c-18.1 0-34.6-16.5-34.6-34.6v-83.3c0-18.1 16.5-34.6 34.6-34.6h50.6v-38.6c0-18.1 14.7-32.8 32.8-32.8h94v-30h-50.1c-18 0-34.3-16.3-34.3-34.3v-82c0-18 16.3-34.3 34.3-34.3h130.3c18 0 34.3 16.3 34.3 34.3v82c0 18-16.3 34.3-34.3 34.3H527v30h95c18.1 0 32.8 14.7 32.8 32.8v38.6h49.7c18.1 0 34.6 16.5 34.6 34.6v83.3z" fill="#38BCFD" p-id="8940"></path></svg>