<?xml version="1.0" standalone="no"?><!DOCTYPE svg PUBLIC "-//W3C//DTD SVG 1.1//EN" "http://www.w3.org/Graphics/SVG/1.1/DTD/svg11.dtd"><svg t="1754234348047" class="icon" viewBox="0 0 1024 1024" version="1.1" xmlns="http://www.w3.org/2000/svg" p-id="30547" xmlns:xlink="http://www.w3.org/1999/xlink" width="200" height="200"><path d="M515.93 985.553c-112.307-7.735-213.497-48.962-298.271-121.523-18.488-15.824-48.096-46.522-63.818-66.167-14.276-17.84-33.5-45.892-43.932-64.11-36.146-63.122-58.33-133.577-65.17-206.982-2.126-22.822-2.133-66.766-0.013-89.918 10.394-113.554 57.22-217.967 135.157-301.377 4.535-4.853 8.92-8.824 9.746-8.824 1.58 0 25.507 23.452 25.507 25 0 0.495-4.638 5.783-10.308 11.75-53.881 56.713-95.643 135.695-113.48 214.62-8.373 37.052-11.236 63.488-11.236 103.756 0 32.707 1.358 49.716 6.3 78.941 15.546 91.922 60.111 179.547 125.449 246.656 76.04 78.102 174.096 126.3 283.232 139.217 19.898 2.355 63.857 3.213 84.414 1.648 108.49-8.26 206.638-51.018 285.659-124.448l11.578-10.76 12.973 12.987 12.972 12.986-4.783 4.967c-2.63 2.731-10.595 10.08-17.698 16.332-80.99 71.274-180.693 114.125-288.947 124.185-17.338 1.611-58.869 2.198-75.332 1.064z m-25.646-81.28c-17.82-2.481-38.46-6.644-53.711-10.832l-12.039-3.306-19.483-17.103c-10.716-9.406-20.084-17.669-20.818-18.362-1.053-0.993 0.108-3.218 5.495-10.535 13.128-17.833 23.129-41.255 26.962-63.148 2.278-13.013 2.254-35.731-0.051-48.908-9.1-52.006-46.02-95.978-95.184-113.364-14.244-5.037-26.36-7.385-44.59-8.64-28.193-1.943-44.915-6.296-67.606-17.603-30.529-15.21-54.22-38.606-69.954-69.079-11.303-21.89-17.533-45.058-17.374-64.612 0.185-22.683 5.654-57.706 11.061-70.835 20.82-50.55 65.1-86.437 120.077-97.313 13.272-2.625 50.498-2.6 72.126 0.05 104.607 12.815 198.021 56.98 272.692 128.924 37.205 35.846 69.581 80.073 93.292 127.44 24.878 49.699 40.712 104.35 47.163 162.783 2.207 19.994 2.498 70.053 0.517 89.102-2.766 26.599-9.639 65.725-12.06 68.655-2.958 3.578-49.558 20.759-71.713 26.44l-10.438 2.675-28.564-10.75c-15.71-5.914-28.898-11.065-29.308-11.448-0.41-0.382 0.704-4.787 2.474-9.788 6.852-19.358 12.798-46.06 16.076-72.202 1.977-15.76 1.652-58.835-0.573-75.946-6.977-53.653-24.499-100.985-53.799-145.321-54.58-82.59-142.603-136.269-242.315-147.768-31.88-3.677-42.75-1.077-50.471 12.073-2.576 4.386-2.96 6.16-2.947 13.602 0.017 9.844 1.435 13.288 8.163 19.824 5.584 5.425 11.31 7.015 30.289 8.41 86.37 6.346 164.76 52.702 212.733 125.797 54.604 83.197 60.758 190.795 15.969 279.18-10.188 20.105-12.822 24.096-15.81 23.955-1.314-0.062-8.641-0.984-16.281-2.047z m-230.529-74.818c-28.876-5.283-51.383-26.16-58.583-54.34-2.528-9.894-2.71-25.695-0.41-35.549 4.615-19.766 20.073-39.312 37.922-47.951 13.084-6.333 21.274-7.979 36.824-7.4 10.939 0.406 14.095 0.952 21.486 3.716 22.052 8.247 37.84 24.724 44.868 46.822 5.859 18.423 4.335 37.082-4.5 55.087-8.833 18.002-26.7 32.777-45.826 37.894-7.745 2.073-24.807 2.996-31.781 1.72z m556.433-65.238l-21.37-0.584-0.237-11.23c-0.378-17.943-2.383-45.21-4.612-62.744-11.897-93.575-50.739-184.892-110.432-259.627-76.248-95.46-183.995-161.22-304.192-185.654-28.52-5.797-50.852-8.425-85.946-10.113l-24.576-1.182-0.534-34.23c-0.294-18.825-0.258-34.86 0.08-35.632 0.865-1.978 21.634-18.923 33.942-27.694 12.064-8.596 29.095-19.422 41.62-26.455l8.857-4.974 8.773 1.172c175.816 23.47 333.01 115.446 439.64 257.241 64.339 85.557 106.963 187.183 123.63 294.766 1.51 9.747 2.745 19.022 2.745 20.609 0 7.65-30.73 54.835-51.01 78.323l-7.333 8.494-13.837 0.05c-7.61 0.026-23.454-0.215-35.208-0.536z m126.606-241.051c-0.54-1.29-3.189-8.362-5.886-15.716-11.713-31.934-33.306-77.65-50.778-107.5-45.231-77.28-103.736-144.935-173.056-200.12-58.005-46.177-124.922-83.813-195.81-110.13-7.533-2.797-13.623-5.658-13.623-6.4 0-0.74 1.977-6.904 4.393-13.701 5.13-14.428 2.75-13.115 25.526-14.084 54.04-2.298 116.192 8.656 170.653 30.077 125.884 49.513 222.373 159.8 255.54 292.083 9.214 36.751 12.41 64.01 12.428 106.014 0.014 26.694-0.223 31.477-1.59 32.338-0.88 0.555-7.275 2.917-14.208 5.247l-12.607 4.237-0.982-2.345z" fill="#ED5547" p-id="30548"></path></svg>