<?xml version="1.0" standalone="no"?><!DOCTYPE svg PUBLIC "-//W3C//DTD SVG 1.1//EN" "http://www.w3.org/Graphics/SVG/1.1/DTD/svg11.dtd"><svg t="1753636943422" class="icon" viewBox="0 0 1024 1024" version="1.1" xmlns="http://www.w3.org/2000/svg" p-id="22216" xmlns:xlink="http://www.w3.org/1999/xlink" width="200" height="200"><path d="M614.398 887.464h-68.266v102.74a34.338 34.338 0 0 1-34.133 33.792 33.724 33.724 0 0 1-34.134-33.791v-102.74H409.6v102.74a34.338 34.338 0 0 1-34.133 33.791 33.724 33.724 0 0 1-34.134-33.791v-102.74H272.52c-75.093 0-135.987-61.44-135.987-135.988v-68.812H33.793A34.338 34.338 0 0 1 0 648.532c0-18.842 14.746-34.134 33.792-34.134h102.741v-68.266H33.793A34.338 34.338 0 0 1 0 511.999c0-18.842 14.746-34.134 33.792-34.134h102.741V409.6H33.793A34.338 34.338 0 0 1 0 375.466c0-18.842 14.746-34.134 33.792-34.134h102.741V272.52c0-75.093 61.44-135.987 135.987-135.987h68.812V33.997C341.332 15.223 357.17 0 375.466 0A34.133 34.133 0 0 1 409.6 33.997v102.536h68.266V33.997C477.865 15.223 493.703 0 512 0a34.133 34.133 0 0 1 34.133 33.997v102.536h68.266V33.997C614.398 15.223 630.236 0 648.532 0a34.133 34.133 0 0 1 34.133 33.997v102.536h68.812c75.094 0 135.987 61.44 135.987 135.987v68.812h102.74c18.638 0 33.793 15.838 33.793 34.134 0 18.84-14.745 34.133-33.792 34.133h-102.74v68.266h102.74c18.637 0 33.792 15.838 33.792 34.134 0 18.84-14.745 34.133-33.792 34.133h-102.74v68.266h102.74c18.637 0 33.792 15.838 33.792 34.134 0 18.84-14.745 34.133-33.792 34.133h-102.74v68.812c0 75.094-61.44 135.987-135.988 135.987h-68.812v102.74a34.338 34.338 0 0 1-34.133 33.792 33.724 33.724 0 0 1-34.134-33.791v-102.74zM204.8 272.52v478.957c0 37.07 30.584 67.72 67.72 67.72h478.958a68.062 68.062 0 0 0 67.72-67.72V272.52a68.062 68.062 0 0 0-67.72-67.72H272.52a68.062 68.062 0 0 0-67.72 67.72z m136.533 137.079c0-37.683 30.31-68.267 68.267-68.267h204.8c37.682 0 68.266 30.31 68.266 68.267v204.8c0 37.682-30.31 68.266-68.267 68.266h-204.8c-37.682 0-68.266-30.31-68.266-68.267v-204.8z m68.267 204.8h204.8v-204.8H409.6v204.8z" fill="#515151" p-id="22217"></path></svg>