<?xml version="1.0" standalone="no"?><!DOCTYPE svg PUBLIC "-//W3C//DTD SVG 1.1//EN" "http://www.w3.org/Graphics/SVG/1.1/DTD/svg11.dtd"><svg t="1752335323761" class="icon" viewBox="0 0 1024 1024" version="1.1" xmlns="http://www.w3.org/2000/svg" p-id="25731" xmlns:xlink="http://www.w3.org/1999/xlink" width="200" height="200"><path d="M232.064 441.824a13.824 13.824 0 0 1 0.16-23.808l271.264-156a13.92 13.92 0 0 1 13.984 0.064l270.624 158.688c4.224 2.496 6.848 7.04 6.848 11.968a13.888 13.888 0 0 1-6.944 11.904l-272.576 157.12a13.92 13.92 0 0 1-14.08-0.064z m278.304-151.904l-243.776 140.192 241.952 143.616 244.992-141.248z m472.544 355.392a13.792 13.792 0 1 1-13.888 23.936l-33.152-19.072a13.856 13.856 0 0 1-6.944-11.968v-32.16l-14.784-8.416-53.056 30.496 8.064 4.576a13.76 13.76 0 0 1 7.008 12v32.224l26.208 15.072a13.792 13.792 0 0 1-6.944 25.792 14.048 14.048 0 0 1-6.944-1.856l-33.152-19.072a13.824 13.824 0 0 1-6.944-11.968v-32.192l-15.136-8.608-53.056 30.496 8.384 4.768a13.76 13.76 0 0 1 7.008 12v32.256l26.208 15.072a13.792 13.792 0 0 1-6.944 25.792 14.048 14.048 0 0 1-6.944-1.856l-33.152-19.072a13.824 13.824 0 0 1-6.944-11.968v-32.224l-15.456-8.8-53.088 30.496 8.736 4.96a13.76 13.76 0 0 1 7.008 12v32.256l26.208 15.072a13.792 13.792 0 0 1-6.944 25.792 14.048 14.048 0 0 1-6.944-1.856l-33.152-19.072a13.824 13.824 0 0 1-6.944-11.968v-32.224l-15.808-8.992-53.056 30.496 9.088 5.184a13.76 13.76 0 0 1 7.008 12v32.224l26.208 15.072a13.792 13.792 0 0 1-6.944 25.792 14.048 14.048 0 0 1-6.944-1.856l-33.152-19.072a13.824 13.824 0 0 1-6.944-11.968v-32.16l-16.16-9.216-72.48 41.664a13.92 13.92 0 0 1-14.016-0.096l-69.728-41.152-16.96 9.664v32.224a13.824 13.824 0 0 1-6.944 11.968l-33.184 19.072a13.824 13.824 0 0 1-13.856-23.936l26.208-15.072V785.6c0-4.96 2.656-9.536 6.976-12l10.272-5.856-52.352-30.88-17.728 10.112v32.16a13.824 13.824 0 0 1-6.944 11.968l-33.184 19.072a13.824 13.824 0 0 1-13.856-23.936l26.208-15.072v-32.224c0-4.96 2.656-9.536 6.976-12l11.008-6.272-52.352-30.912-18.432 10.496v32.16a13.824 13.824 0 0 1-6.944 11.968l-33.184 19.072a13.824 13.824 0 0 1-13.856-23.936l26.24-15.072v-32.192c0-4.96 2.656-9.536 6.976-12l11.744-6.688-52.352-30.912-19.2 10.912v32.16a13.92 13.92 0 0 1-6.912 11.968l-33.184 19.072a13.92 13.92 0 0 1-18.944-5.056 13.792 13.792 0 0 1 5.056-18.88l26.24-15.072v-32.256c0-4.96 2.656-9.536 6.976-12l12.48-7.104-52.352-30.912-19.904 11.328v32.224a13.824 13.824 0 0 1-6.944 11.968l-33.152 19.072a13.824 13.824 0 0 1-13.856-23.936l26.208-15.072v-32.256c0-4.96 2.656-9.536 6.976-12l13.216-7.52-5.44-3.2a13.696 13.696 0 0 1-6.784-11.872v-134.08h0.032l-0.032-0.096a13.888 13.888 0 0 1 6.944-11.904l30.688-17.6-4.864-3.136a13.792 13.792 0 1 1 15.136-23.168l16.736 10.816 59.424-34.08-4.96-3.2c-6.432-4.16-8.256-12.704-4.096-19.104s12.768-8.256 19.2-4.064l16.864 10.912L285.76 301.44l-5.088-3.296a13.824 13.824 0 1 1 15.136-23.168l16.96 10.976 59.424-34.112-5.216-3.36c-6.432-4.16-8.224-12.704-4.064-19.104s12.768-8.224 19.2-4.032l17.024 11.04 59.456-34.112-5.312-3.424c-6.432-4.16-8.224-12.704-4.064-19.136s12.768-8.192 19.2-4.064l17.152 11.104 24.896-14.272a14.016 14.016 0 0 1 13.952 0.064l32.128 18.752 0.096-0.064 17.888-11.584a13.92 13.92 0 0 1 19.168 4.064c4.192 6.4 2.368 14.944-4.064 19.136l-6.336 4.096 60.576 35.36c0.224-0.16 0.32-0.416 0.576-0.544l17.888-11.584a13.92 13.92 0 0 1 19.168 4.064c4.192 6.4 2.368 14.944-4.064 19.136l-6.944 4.48 60.704 35.456c0.384-0.32 0.608-0.736 1.056-1.024l17.888-11.584a13.92 13.92 0 0 1 19.168 4.032c4.192 6.4 2.368 14.944-4.064 19.136l-7.552 4.896 60.832 35.488c0.544-0.48 0.896-1.088 1.504-1.472l17.888-11.584a13.952 13.952 0 0 1 19.168 4.032c4.192 6.4 2.368 14.944-4.064 19.136l-8.16 5.28 58.784 34.336 22.848-12.736a13.92 13.92 0 0 1 18.88 5.312 13.76 13.76 0 0 1-5.312 18.816l-8.64 4.832 16.896 9.856a13.888 13.888 0 0 1 6.88 11.936v134.112a13.824 13.824 0 0 1-6.944 11.968l-6.272 3.616 7.712 4.384a13.76 13.76 0 0 1 7.008 12v32.256zM517.344 200.48L116.64 430.336l394.56 232.864 402.56-231.36-17.12-9.984-0.032-0.032z m-32.352 538.784a13.76 13.76 0 0 1-5.152 18.848l-17.824 10.144 35.232 20.8v-101.984L103.04 454.4v101.984l12.192 7.2 28.608-16.256a13.856 13.856 0 1 1 13.792 24l-14.944 8.48 52.352 30.912 29.344-16.704a13.952 13.952 0 0 1 18.944 5.152 13.76 13.76 0 0 1-5.152 18.848l-15.648 8.896 52.352 30.88 30.08-17.152a13.984 13.984 0 0 1 18.944 5.152 13.76 13.76 0 0 1-5.152 18.848l-16.384 9.344 52.352 30.912 30.784-17.536a13.952 13.952 0 0 1 18.944 5.152 13.76 13.76 0 0 1-5.152 18.848l-17.12 9.76 52.352 30.912 31.52-17.952a13.984 13.984 0 0 1 18.944 5.152z m348.192-127.04l53.056-30.496-19.84-11.296a13.76 13.76 0 0 1-5.184-18.848 13.92 13.92 0 0 1 18.944-5.152l33.92 19.296 13.344-7.68v-102.208l-402.464 231.36v102.144l37.632-21.632-18.464-10.496a13.76 13.76 0 0 1-5.152-18.848 13.952 13.952 0 0 1 18.912-5.152l32.512 18.528 53.056-30.496-18.784-10.688a13.76 13.76 0 0 1-5.184-18.848 13.952 13.952 0 0 1 18.944-5.152l32.864 18.72 53.088-30.496-19.136-10.88a13.76 13.76 0 0 1-5.184-18.848 13.952 13.952 0 0 1 18.944-5.152l33.216 18.912 53.088-30.496-19.488-11.104a13.76 13.76 0 0 1-5.184-18.848 13.92 13.92 0 0 1 18.944-5.152z m-316.992-89.024a13.76 13.76 0 0 1-14.048-0.096l-138.272-82.048a13.792 13.792 0 0 1 0.128-23.808l139.296-80.096a13.984 13.984 0 0 1 13.984 0.064l138.976 81.472c4.224 2.496 6.848 7.04 6.848 11.968a13.888 13.888 0 0 1-6.944 11.904z m-117.792-93.824l110.944 65.856 112.384-64.768-111.52-65.376z" p-id="25732"></path></svg>